<?xml version="1.0" encoding="utf-8"?>
<!-- Generator: Adobe Illustrator 21.0.0, SVG Export Plug-In . SVG Version: 6.00 Build 0)  -->
<svg version="1.1" id="Layer_1" xmlns="http://www.w3.org/2000/svg" xmlns:xlink="http://www.w3.org/1999/xlink" x="0px" y="0px"
	 viewBox="0 0 640 480" style="enable-background:new 0 0 640 480;" xml:space="preserve">
<style type="text/css">
	.st0{fill:#F5A623;}
	.st1{fill:none;stroke:#F5A623;stroke-width:2;stroke-miterlimit:10;}
</style>
<g>
	<g>
		<path class="st0" d="M284,224c1.7,0,3,1.3,3,3v22c0,1.7-1.3,3-3,3h-22c-1.7,0-3-1.3-3-3v-22c0-1.7,1.3-3,3-3H284 M284,222h-22
			c-2.8,0-5,2.2-5,5v22c0,2.8,2.2,5,5,5h22c2.8,0,5-2.2,5-5v-22C289,224.2,286.8,222,284,222L284,222z"/>
	</g>
	<g>
		<g>
			<line class="st1" x1="262.5" y1="244" x2="283.5" y2="244"/>
		</g>
		<g>
			<line class="st1" x1="262.5" y1="232" x2="283.5" y2="232"/>
		</g>
		<g>
			<line class="st1" x1="262.5" y1="238" x2="283.5" y2="238"/>
		</g>
	</g>
</g>
</svg>
