<svg width="65" height="65" xmlns="http://www.w3.org/2000/svg">

 <g>
  <title>background</title>
  <rect fill="none" id="canvas_background" height="402" width="582" y="-1" x="-1"/>
 </g>
 <g>
  <title>Layer 1</title>
  <path stroke="#676d85" fill="#676d85" id="svg_2" d="m57.5,61.2l-16,0c-0.4,0 -0.8,0.3 -0.8,0.8s0.3,0.8 0.8,0.8l16,0c0.4,0 0.8,-0.3 0.8,-0.8s-0.4,-0.8 -0.8,-0.8z" class="st0"/>
  <path stroke="#676d85" fill="#676d85" id="svg_3" d="m63.5,61.2l-2,0c-0.4,0 -0.8,0.3 -0.8,0.8s0.3,0.8 0.8,0.8l2,0c0.4,0 0.8,-0.3 0.8,-0.8s-0.4,-0.8 -0.8,-0.8z" class="st0"/>
  <path stroke="#676d85" fill="#676d85" id="svg_4" d="m6.5,2.7l11,0c0.4,0 0.8,-0.3 0.8,-0.8s-0.3,-0.8 -0.8,-0.8l-11,0c-0.4,0.1 -0.7,0.5 -0.7,0.9s0.3,0.7 0.7,0.7z" class="st0"/>
  <path stroke="#676d85" fill="#676d85" id="svg_5" d="m1.5,2.7l1,0c0.4,0 0.8,-0.3 0.8,-0.8s-0.4,-0.7 -0.8,-0.7l-1,0c-0.4,0 -0.7,0.4 -0.7,0.8s0.3,0.7 0.7,0.7z" class="st0"/>
  <path stroke="#676d85" fill="#676d85" id="svg_6" d="m24.5,60.3l-1.3,0l0,-1.3c0,-0.4 -0.3,-0.8 -0.8,-0.8s-0.8,0.3 -0.8,0.8l0,1.3l-1.3,0c-0.4,0 -0.8,0.3 -0.8,0.8s0.3,0.8 0.8,0.8l1.3,0l0,1.1c0,0.4 0.3,0.8 0.8,0.8s0.8,-0.3 0.8,-0.8l0,-1.3l1.3,0c0.4,0 0.8,-0.3 0.8,-0.8s-0.4,-0.6 -0.8,-0.6z" class="st0"/>
  <path stroke="#676d85" fill="#676d85" id="svg_7" d="m59.5,5.7l1.3,0l0,1.3c0,0.4 0.3,0.8 0.8,0.8s0.8,-0.3 0.8,-0.8l0,-1.3l1.3,0c0.4,0 0.8,-0.3 0.8,-0.8s-0.3,-0.8 -0.8,-0.8l-1.3,0l0,-1.1c0,-0.4 -0.3,-0.8 -0.8,-0.8s-0.8,0.4 -0.8,0.8l0,1.3l-1.3,0c-0.4,0 -0.8,0.3 -0.8,0.8s0.4,0.6 0.8,0.6z" class="st0"/>
  <path stroke="#676d85" fill="#676d85" id="svg_8" d="m64.2,15c0,-0.4 -0.3,-0.8 -0.8,-0.8l-18.4,0l-2.8,-5.6c-0.1,-0.3 -0.4,-0.4 -0.7,-0.4l-18,0c-0.3,0 -0.5,0.2 -0.7,0.4l-2.8,5.7l-3.8,0l0,-3.3c0,-0.4 -0.3,-0.8 -0.8,-0.8l-10,0c-0.4,0 -0.8,0.3 -0.8,0.8l0,3.3l-3.1,0c-0.4,0 -0.8,0.3 -0.8,0.8l0,40c0,0.4 0.3,0.8 0.8,0.8l62,0c0.4,0 0.8,-0.3 0.8,-0.8l0,-6c0,0 0,0 0,0s0,0 0,0l0,-34.1l-0.1,0zm-57.9,-3.3l8.5,0l0,2.5l-8.5,0l0,-2.5zm14.2,4.1c0.3,0 0.5,-0.2 0.7,-0.4l2.8,-5.6l17,0l2.8,5.6c0.1,0.3 0.4,0.4 0.7,0.4l18.3,0l0,8.5l-14.3,0c-0.4,0 -0.8,0.3 -0.8,0.8s0.3,0.8 0.8,0.8l14.2,0l0,22.5l-20.3,0c3.6,-2.9 5.9,-7.3 5.9,-12.3c0,-8.7 -7.1,-15.8 -15.8,-15.8s-15.7,7 -15.7,15.7c0,4.9 2.3,9.4 5.9,12.3l-20.5,0l0,-22.6l14.8,0c0.4,0 0.8,-0.3 0.8,-0.8s-0.3,-0.8 -0.8,-0.8l-14.8,0l0,-8.5l18.3,0l0,0.2zm-2.2,20.2c0,-7.9 6.4,-14.3 14.3,-14.3s14.2,6.4 14.2,14.3s-6.4,14.3 -14.3,14.3s-14.2,-6.4 -14.2,-14.3zm-16.1,18.3l0,-4.5l22.3,0c0.1,0 0.2,0 0.3,-0.1c2.3,1.3 4.9,2.1 7.7,2.1c2.8,0 5.4,-0.7 7.7,-2l22.6,0l0,4.5l-60.6,0z" class="st0"/>
  <path stroke="#676d85" fill="#676d85" id="svg_9" d="m44.3,36c0,-6.5 -5.3,-11.8 -11.8,-11.8s-11.7,5.3 -11.7,11.8s5.2,11.7 11.7,11.7s11.8,-5.2 11.8,-11.7zm-22,0c0,-5.7 4.6,-10.3 10.3,-10.3s10.2,4.6 10.2,10.3s-4.6,10.3 -10.3,10.3s-10.2,-4.6 -10.2,-10.3z" class="st0"/>
  <path stroke="#676d85" fill="#676d85" id="svg_10" d="m33.3,29c0,-0.4 -0.3,-0.8 -0.8,-0.8c-4.3,0 -7.8,3.5 -7.8,7.8c0,0.4 0.3,0.8 0.8,0.8s0.8,-0.3 0.8,-0.8c0,-3.4 2.8,-6.3 6.3,-6.3c0.3,0 0.7,-0.3 0.7,-0.7z" class="st0"/>
  <path stroke="#676d85" fill="#676d85" id="svg_11" d="m27.5,13.7l10,0c0.4,0 0.8,-0.3 0.8,-0.8s-0.3,-0.8 -0.8,-0.8l-10,0c-0.4,0 -0.8,0.3 -0.8,0.8s0.4,0.8 0.8,0.8z" class="st0"/>
  <path stroke="#676d85" fill="#676d85" id="svg_12" d="m55.5,22.7c1.5,0 2.8,-1.2 2.8,-2.8s-1.2,-2.8 -2.8,-2.8s-2.8,1.2 -2.8,2.8s1.3,2.8 2.8,2.8zm0,-4c0.7,0 1.3,0.6 1.3,1.3s-0.6,1.3 -1.3,1.3s-1.3,-0.6 -1.3,-1.3s0.6,-1.3 1.3,-1.3z" class="st0"/>
 </g>
</svg>