<svg width="65" height="65" xmlns="http://www.w3.org/2000/svg">

 <g>
  <title>background</title>
  <rect fill="none" id="canvas_background" height="402" width="582" y="-1" x="-1"/>
 </g>
 <g>
  <title>Layer 1</title>
  <path stroke="#676d85" fill="#676d85" id="svg_2" d="m36.5,3.8l16,0c0.4,0 0.8,-0.3 0.8,-0.8s-0.3,-0.8 -0.8,-0.8l-16,0c-0.4,0 -0.8,0.3 -0.8,0.8s0.4,0.8 0.8,0.8z" class="st0"/>
  <path stroke="#676d85" fill="#676d85" id="svg_3" d="m56.5,3.8l2,0c0.4,0 0.8,-0.3 0.8,-0.8s-0.3,-0.8 -0.8,-0.8l-2,0c-0.4,0 -0.8,0.3 -0.8,0.8s0.4,0.8 0.8,0.8z" class="st0"/>
  <path stroke="#676d85" fill="#676d85" id="svg_4" d="m60.5,46.3c-0.4,0 -0.8,0.3 -0.8,0.8l0,7c0,0.4 0.3,0.8 0.8,0.8s0.8,-0.3 0.8,-0.8l0,-7c0,-0.5 -0.4,-0.8 -0.8,-0.8z" class="st0"/>
  <path stroke="#676d85" fill="#676d85" id="svg_5" d="m60.5,57.3c-0.4,0 -0.8,0.3 -0.8,0.8l0,1c0,0.4 0.3,0.8 0.8,0.8s0.8,-0.3 0.8,-0.8l0,-1c0,-0.5 -0.4,-0.8 -0.8,-0.8z" class="st0"/>
  <path stroke="#676d85" fill="#676d85" id="svg_6" d="m46.5,59.3l-1.3,0l0,-1.3c0,-0.4 -0.3,-0.8 -0.8,-0.8s-0.8,0.3 -0.8,0.8l0,1.3l-1.3,0c-0.4,0 -0.8,0.3 -0.8,0.8s0.3,0.8 0.8,0.8l1.3,0l0,1.1c0,0.4 0.3,0.8 0.8,0.8s0.8,-0.3 0.8,-0.8l0,-1.3l1.3,0c0.4,0 0.8,-0.3 0.8,-0.8s-0.4,-0.6 -0.8,-0.6z" class="st0"/>
  <path stroke="#676d85" fill="#676d85" id="svg_7" d="m1.5,11.8l1.3,0l0,1.2c0,0.4 0.3,0.8 0.8,0.8s0.8,-0.3 0.8,-0.8l0,-1.3l1.3,0c0.4,0 0.8,-0.3 0.8,-0.8s-0.3,-0.8 -0.8,-0.8l-1.4,0l0,-1.1c0,-0.4 -0.3,-0.8 -0.8,-0.8s-0.7,0.4 -0.7,0.8l0,1.3l-1.3,0c-0.4,0 -0.8,0.3 -0.8,0.8s0.4,0.7 0.8,0.7z" class="st0"/>
  <path stroke="#676d85" fill="#676d85" id="svg_8" d="m59.5,7.3l-38,0c-2.6,0 -4.8,2.1 -4.8,4.8l0,26c0,2.6 2.1,4.8 4.8,4.8l17.8,0l11.7,8.7c0.1,0.1 0.3,0.2 0.5,0.2c0.1,0 0.2,0 0.3,-0.1c0.3,-0.1 0.4,-0.4 0.4,-0.7l0,-8.3l7.3,0c2.6,0 4.8,-2.1 4.8,-4.8l0,-25.9c0,-2.6 -2.2,-4.7 -4.8,-4.7zm3.3,30.7c0,1.8 -1.5,3.3 -3.3,3.3l-8,0c-0.4,0 -0.8,0.3 -0.8,0.8l0,7.5l-10.7,-8.2c-0.1,-0.1 -0.3,-0.2 -0.5,-0.2l-18,0c-1.8,0 -3.3,-1.5 -3.3,-3.3l0,-25.9c0,-1.8 1.5,-3.3 3.3,-3.3l38,0c1.8,0 3.3,1.5 3.3,3.3l0,26z" class="st0"/>
  <path stroke="#676d85" fill="#676d85" id="svg_9" d="m52.5,21.3c-2.1,0 -3.8,1.7 -3.8,3.8s1.7,3.8 3.8,3.8s3.8,-1.7 3.8,-3.8s-1.7,-3.8 -3.8,-3.8zm0,6c-1.2,0 -2.3,-1 -2.3,-2.3s1,-2.3 2.3,-2.3s2.3,1 2.3,2.3s-1.1,2.3 -2.3,2.3z" class="st0"/>
  <path stroke="#676d85" fill="#676d85" id="svg_10" d="m40.5,21.3c-2.1,0 -3.8,1.7 -3.8,3.8s1.7,3.8 3.8,3.8s3.8,-1.7 3.8,-3.8s-1.7,-3.8 -3.8,-3.8zm0,6c-1.2,0 -2.3,-1 -2.3,-2.3s1,-2.3 2.3,-2.3s2.3,1 2.3,2.3s-1.1,2.3 -2.3,2.3z" class="st0"/>
  <path stroke="#676d85" fill="#676d85" id="svg_11" d="m28.5,21.3c-2.1,0 -3.8,1.7 -3.8,3.8s1.7,3.8 3.8,3.8s3.8,-1.7 3.8,-3.8s-1.7,-3.8 -3.8,-3.8zm0,6c-1.2,0 -2.3,-1 -2.3,-2.3s1,-2.3 2.3,-2.3s2.3,1 2.3,2.3s-1.1,2.3 -2.3,2.3z" class="st0"/>
  <path stroke="#676d85" fill="#676d85" id="svg_12" d="m44.1,50.1c0.1,-0.4 -0.2,-0.8 -0.6,-0.9c-0.4,-0.1 -0.8,0.2 -0.9,0.6c-0.3,1.5 -1.6,2.5 -3.2,2.5l-14,0c-0.2,0 -0.3,0.1 -0.5,0.2l-10.8,8.1l0,-7.6c0,-0.4 -0.3,-0.8 -0.8,-0.8l-8,0c-1.8,0 -3.3,-1.5 -3.3,-3.3l0,-21.9c0,-1.8 1.5,-3.3 3.3,-3.3l8,0c0.4,0 0.8,-0.3 0.8,-0.8s-0.3,-0.8 -0.8,-0.8l-8,0c-2.6,0 -4.8,2.1 -4.8,4.8l0,22c0,2.6 2.1,4.8 4.8,4.8l7.3,0l0,8.3c0,0.3 0.2,0.5 0.4,0.7c0.1,0.1 0.2,0.1 0.3,0.1c0.2,0 0.3,-0.1 0.5,-0.2l11.8,-8.8l13.8,0c2.3,0 4.2,-1.6 4.7,-3.7z" class="st0"/>
 </g>
</svg>