<svg width="65" height="65" xmlns="http://www.w3.org/2000/svg">

 <g>
  <title>background</title>
  <rect fill="none" id="canvas_background" height="402" width="582" y="-1" x="-1"/>
 </g>
 <g>
  <title>Layer 1</title>
  <path fill="#676d85" id="svg_2" d="m56.4,62.8l-16,0c-0.4,0 -0.8,0.3 -0.8,0.8s0.3,0.8 0.8,0.8l16,0c0.4,0 0.8,-0.3 0.8,-0.8s-0.4,-0.8 -0.8,-0.8z" class="st0"/>
  <path fill="#676d85" id="svg_3" d="m62.4,62.8l-2,0c-0.4,0 -0.8,0.3 -0.8,0.8s0.3,0.8 0.8,0.8l2,0c0.4,0 0.8,-0.3 0.8,-0.8s-0.4,-0.8 -0.8,-0.8z" class="st0"/>
  <path fill="#676d85" id="svg_4" d="m18.4,9.3c0.4,0 0.8,-0.3 0.8,-0.8l0,-7c0,-0.4 -0.3,-0.8 -0.8,-0.8s-0.8,0.3 -0.8,0.8l0,7c0,0.4 0.3,0.8 0.8,0.8z" class="st0"/>
  <path fill="#676d85" id="svg_5" d="m18.4,14.3c0.4,0 0.8,-0.3 0.8,-0.8l0,-1c0,-0.4 -0.3,-0.8 -0.8,-0.8s-0.8,0.3 -0.8,0.8l0,1c0,0.4 0.3,0.8 0.8,0.8z" class="st0"/>
  <path fill="#676d85" id="svg_6" d="m58.4,20.3l1.3,0l0,1.3c0,0.4 0.3,0.8 0.8,0.8s0.8,-0.3 0.8,-0.8l0,-1.3l1.3,0c0.4,0 0.8,-0.3 0.8,-0.8s-0.3,-0.8 -0.8,-0.8l-1.3,0l0,-1.3c0,-0.4 -0.3,-0.8 -0.8,-0.8s-0.8,0.3 -0.8,0.8l0,1.3l-1.3,0c-0.4,0 -0.8,0.3 -0.8,0.8s0.3,0.8 0.8,0.8z" class="st0"/>
  <path fill="#676d85" id="svg_7" d="m31.4,9.3l1.3,0l0,1.3c0,0.4 0.3,0.8 0.8,0.8s0.8,-0.3 0.8,-0.8l0,-1.3l1.3,0c0.4,0 0.8,-0.3 0.8,-0.8s-0.3,-0.8 -0.8,-0.8l-1.3,0l0,-1.2c0,-0.4 -0.3,-0.8 -0.8,-0.8s-0.8,0.3 -0.8,0.8l0,1.3l-1.3,0c-0.4,0 -0.8,0.3 -0.8,0.8s0.3,0.7 0.8,0.7z" class="st0"/>
  <path stroke="#676d85" fill="#676d85" id="svg_8" d="m63.2,31c-0.4,-1.5 -1.3,-2.7 -2.9,-3.6c-1.3,-0.8 -3,-1.2 -4.7,-1.2l-7.6,0c-0.3,-0.2 -0.3,-0.3 -0.3,-0.5c-0.2,-1 1.3,-3 2.4,-4.1c0.1,-0.1 0.1,-0.1 0.1,-0.2c5.4,-10.4 0,-15 -0.2,-15.2c0,0 -0.1,0 -0.1,-0.1c-1.4,-0.8 -2.6,-1 -3.7,-0.4c-2.4,1.3 -2.9,5.5 -3,6.4c-0.9,2.4 -3.6,5.3 -5.6,7.3c-1.8,1.9 -3.6,4 -5.1,6.3c-1.7,2.6 -2.9,4.3 -3.4,5c-1.1,1.4 -2.4,1.5 -2.4,1.5l-2.5,0l0,-2.9c0,-0.4 -0.3,-0.8 -0.8,-0.8l-12.6,0c-0.4,0 -0.8,0.3 -0.8,0.8l0,2.4l-7.6,0c-0.4,0 -0.7,0.3 -0.7,0.8s0.3,0.8 0.7,0.8l7.7,0l0,22.3l-7.7,0c-0.4,0 -0.7,0.3 -0.7,0.8s0.2,0.6 0.7,0.6l7.7,0l0,1.7c0,0.4 0.3,0.8 0.8,0.8l12.6,0c0.4,0 0.8,-0.3 0.8,-0.8l0,-2.2l1.9,0c0.6,1.2 2.2,1.6 3.2,1.7l26.5,0c0,0 0.1,0 0.1,0c1.8,-0.3 3,-1.1 3.7,-2.4c0.8,-1.5 0.4,-3.3 0.1,-4.3c2.4,-1.8 2.1,-5 1.5,-6.9c2.9,-2.5 2,-6.1 0.8,-8c1.1,-2 1.6,-3.9 1.1,-5.6zm-40.5,27l-11.1,0l0,-27.9l11.1,0l0,27.9zm38,-22l-10.3,0c-0.4,0 -0.8,0.3 -0.8,0.8s0.3,0.8 0.8,0.8l10.4,0c0.6,1 2.1,4.1 -0.7,6.2l-9.7,0c-0.4,0 -0.8,0.3 -0.8,0.8s0.3,0.8 0.8,0.8l9.4,0c0.3,1.1 1,4 -1.2,5.4l-8.2,0c-0.4,0 -0.8,0.3 -0.8,0.8s0.3,0.8 0.8,0.8l7.9,0c0.2,0.7 0.5,2 0,3.1c-0.4,0.8 -1.3,1.3 -2.5,1.6l-26.3,0c-0.4,0 -1.9,-0.3 -2.1,-1.1c-0.1,-0.4 -0.4,-0.6 -0.7,-0.6l-2.4,0l0,-21.7l2.5,0c0.1,0 2.1,0 3.6,-2.1c0.5,-0.7 1.7,-2.4 3.5,-5.1c1.5,-2.2 3.1,-4.2 4.9,-6c2.2,-2.2 5,-5.3 6,-8c0,-0.1 0,-0.1 0,-0.2c0.1,-1.2 0.6,-4.5 2.2,-5.3c0.6,-0.3 1.3,-0.2 2.2,0.3c0.4,0.4 4.4,4.3 -0.2,13.3c-0.6,0.6 -3.1,3.3 -2.7,5.3c0.1,0.5 0.4,1.2 1.3,1.6c0.1,0 0.2,0.1 0.3,0.1l7.8,0c1.5,0 2.9,0.3 4,1c1.2,0.7 1.9,1.6 2.2,2.7c0.2,1.4 -0.2,2.9 -1.2,4.7z" class="st0"/>
  <path fill="#676d85" id="svg_9" d="m17.1,49.6c-1.6,0 -2.9,1.3 -2.9,2.9s1.3,2.9 2.9,2.9s2.9,-1.3 2.9,-2.9s-1.3,-2.9 -2.9,-2.9zm0,4.2c-0.7,0 -1.4,-0.6 -1.4,-1.4s0.6,-1.4 1.4,-1.4s1.4,0.6 1.4,1.4s-0.6,1.4 -1.4,1.4z" class="st0"/>
 </g>
</svg>